
<svg width="32" height="32" viewBox="0 0 32 32" xmlns="http://www.w3.org/2000/svg">
  <circle cx="16" cy="16" r="16" fill="#000000"/>
  
  <circle cx="11" cy="7" r="2" fill="#ffffff"/>
  <circle cx="21" cy="7" r="2" fill="#ffffff"/>
  
  <path d="M 6 13 Q 6 11 8 11 L 15 11 Q 16 13 16 15 L 16 24 Q 16 26 14 26 L 8 26 Q 6 26 6 24 Z" fill="#ffffff"/>
  
  <path d="M 16 15 Q 16 13 17 11 L 24 11 Q 26 11 26 13 L 26 24 Q 26 26 24 26 L 18 26 Q 16 26 16 24 Z" fill="#ffffff"/>
  
  <path d="M 8 11 Q 16 15 24 11" fill="none" stroke="#ffffff" stroke-width="0"/>
  
  <rect x="15.5" y="11" width="1" height="15" fill="#000000"/>
  
  <rect x="15.5" y="26" width="1" height="3" fill="#000000"/>
 
  <text x="12" y="20" font-family="Arial, sans-serif" font-size="8" font-weight="bold" text-anchor="middle" fill="#1c3c6c">E</text>
  <text x="20" y="20" font-family="Arial, sans-serif" font-size="8" font-weight="bold" text-anchor="middle" fill="#1c3c6c">n</text>
</svg>
