<svg width="32" height="32" viewBox="0 0 32 32" xmlns="http://www.w3.org/2000/svg">
  <defs>
    <linearGradient id="blueGradient" x1="0" y1="0" x2="1" y2="1">
      <stop offset="0%" stop-color="#60a5fa"/>
      <stop offset="100%" stop-color="#1d4ed8"/>
    </linearGradient>
    <filter id="shadow" x="-50%" y="-50%" width="200%" height="200%">
      <feDropShadow dx="0" dy="3" stdDeviation="2" flood-color="#000" flood-opacity="0.25"/>
    </filter>
  </defs>
  <circle cx="16" cy="16" r="16" fill="#1f2937"/>

  <rect x="4" y="8" width="24" height="18" rx="1" fill="#1d4ed8" filter="url(#shadow)"/>
  
  <path d="M 4 9 L 15 9 Q 16 11 16 13 L 16 25 L 4 25 Q 4 25 4 24 Z" fill="#ffffff" stroke="#e5e7eb" stroke-width="0.5"/>

  <path d="M 17 13 Q 16 11 17 9 L 28 9 L 28 25 L 16 25 Z" fill="#ffffff" stroke="#e5e7eb" stroke-width="0.5"/>
 
  <path d="M 15 9 Q 16 11 17 9" stroke="#d1d5db" stroke-width="0.5" fill="none"/>
  <path d="M 15 25 Q 16 23 17 25" stroke="#d1d5db" stroke-width="0.5" fill="none"/>
 
  <line x1="6" y1="15" x2="13" y2="15" stroke="#9ca3af" stroke-width="0.5"/>
  <line x1="6" y1="18" x2="12" y2="18" stroke="#9ca3af" stroke-width="0.5"/>
  <line x1="6" y1="21" x2="13" y2="21" stroke="#9ca3af" stroke-width="0.5"/>
 
  <line x1="19" y1="15" x2="26" y2="15" stroke="#9ca3af" stroke-width="0.5"/>
  <line x1="18" y1="18" x2="25" y2="18" stroke="#9ca3af" stroke-width="0.5"/>
  <line x1="19" y1="21" x2="24" y2="21" stroke="#9ca3af" stroke-width="0.5"/>
 
  <line x1="16" y1="8" x2="16" y2="26" stroke="#ffffff" stroke-width="1"/>

  <rect x="15.3" y="8" width="1.4" height="6" fill="#3b82f6"/>
 
  <circle cx="23" cy="11" r="1.5" fill="#f59e0b"/>
  <rect x="22.5" y="9.5" width="1" height="3" fill="#92400e" rx="0.2"/>
  <circle cx="23" cy="9.2" r="0.3" fill="#1f2937"/>
</svg>
